REM DIRINDEX 1\2,1\3
REM DIRNAME cjc039,folder01,folder02
TITLE ""
FILE "2221-2240.mp3" MP3
  TRACK 01 AUDIO
    TITLE "0:"
    INDEX 01 00:00:00
  TRACK 02 AUDIO
    TITLE "2:cjc039_3441"
    INDEX 01 00:00:27
  TRACK 03 AUDIO
    TITLE "0:"
    INDEX 01 00:01:32
  TRACK 04 AUDIO
    TITLE "3:cjc039_3442"
    INDEX 01 00:02:08
  TRACK 05 AUDIO
    TITLE "0:"
    INDEX 01 00:06:00
  TRACK 06 AUDIO
    TITLE "2:cjc039_3443"
    INDEX 01 00:07:45
  TRACK 07 AUDIO
    TITLE "0:"
    INDEX 01 00:08:72
  TRACK 08 AUDIO
    TITLE "3:cjc039_3444"
    INDEX 01 00:09:45
  TRACK 09 AUDIO
    TITLE "0:"
    INDEX 01 00:14:41
  TRACK 10 AUDIO
    TITLE "2:cjc039_3445"
    INDEX 01 00:16:20
  TRACK 11 AUDIO
    TITLE "0:"
    INDEX 01 00:17:23
  TRACK 12 AUDIO
    TITLE "3:cjc039_3446"
    INDEX 01 00:18:01
  TRACK 13 AUDIO
    TITLE "0:"
    INDEX 01 00:21:08
  TRACK 14 AUDIO
    TITLE "2:cjc039_3447"
    INDEX 01 00:22:56
  TRACK 15 AUDIO
    TITLE "0:"
    INDEX 01 00:24:10
  TRACK 16 AUDIO
    TITLE "3:cjc039_3448"
    INDEX 01 00:24:59
  TRACK 17 AUDIO
    TITLE "0:"
    INDEX 01 00:29:05
  TRACK 18 AUDIO
    TITLE "2:cjc039_3449"
    INDEX 01 00:30:57
  TRACK 19 AUDIO
    TITLE "0:"
    INDEX 01 00:31:61
  TRACK 20 AUDIO
    TITLE "3:cjc039_3450"
    INDEX 01 00:32:37
  TRACK 21 AUDIO
    TITLE "0:"
    INDEX 01 00:35:45
  TRACK 22 AUDIO
    TITLE "2:cjc039_3451"
    INDEX 01 00:37:22
  TRACK 23 AUDIO
    TITLE "0:"
    INDEX 01 00:38:55
  TRACK 24 AUDIO
    TITLE "3:cjc039_3452"
    INDEX 01 00:39:31
  TRACK 25 AUDIO
    TITLE "0:"
    INDEX 01 00:43:31
  TRACK 26 AUDIO
    TITLE "2:cjc039_3453"
    INDEX 01 00:45:02
  TRACK 27 AUDIO
    TITLE "0:"
    INDEX 01 00:46:23
  TRACK 28 AUDIO
    TITLE "3:cjc039_3454"
    INDEX 01 00:46:74
  TRACK 29 AUDIO
    TITLE "0:"
    INDEX 01 00:51:50
  TRACK 30 AUDIO
    TITLE "2:cjc039_3455"
    INDEX 01 00:53:27
  TRACK 31 AUDIO
    TITLE "0:"
    INDEX 01 00:54:50
  TRACK 32 AUDIO
    TITLE "3:cjc039_3456"
    INDEX 01 00:55:28
  TRACK 33 AUDIO
    TITLE "0:"
    INDEX 01 01:00:19
  TRACK 34 AUDIO
    TITLE "2:cjc039_3457"
    INDEX 01 01:01:72
  TRACK 35 AUDIO
    TITLE "0:"
    INDEX 01 01:03:14
  TRACK 36 AUDIO
    TITLE "3:cjc039_3458"
    INDEX 01 01:03:65
  TRACK 37 AUDIO
    TITLE "0:"
    INDEX 01 01:07:29
  TRACK 38 AUDIO
    TITLE "2:cjc039_3459"
    INDEX 01 01:09:05
  TRACK 39 AUDIO
    TITLE "0:"
    INDEX 01 01:10:31
  TRACK 40 AUDIO
    TITLE "3:cjc039_3460"
    INDEX 01 01:11:07
  TRACK 41 AUDIO
    TITLE "0:"
    INDEX 01 01:15:19
  TRACK 42 AUDIO
    TITLE "2:cjc039_3461"
    INDEX 01 01:16:73
  TRACK 43 AUDIO
    TITLE "0:"
    INDEX 01 01:18:06
  TRACK 44 AUDIO
    TITLE "3:cjc039_3462"
    INDEX 01 01:18:60
  TRACK 45 AUDIO
    TITLE "0:"
    INDEX 01 01:22:66
  TRACK 46 AUDIO
    TITLE "2:cjc039_3463"
    INDEX 01 01:24:41
  TRACK 47 AUDIO
    TITLE "0:"
    INDEX 01 01:25:62
  TRACK 48 AUDIO
    TITLE "3:cjc039_3464"
    INDEX 01 01:26:44
  TRACK 49 AUDIO
    TITLE "0:"
    INDEX 01 01:31:08
  TRACK 50 AUDIO
    TITLE "2:cjc039_3465"
    INDEX 01 01:32:60
  TRACK 51 AUDIO
    TITLE "0:"
    INDEX 01 01:34:10
  TRACK 52 AUDIO
    TITLE "3:cjc039_3466"
    INDEX 01 01:34:59
  TRACK 53 AUDIO
    TITLE "0:"
    INDEX 01 01:39:17
  TRACK 54 AUDIO
    TITLE "2:cjc039_3467"
    INDEX 01 01:40:68
  TRACK 55 AUDIO
    TITLE "0:"
    INDEX 01 01:42:18
  TRACK 56 AUDIO
    TITLE "3:cjc039_3468"
    INDEX 01 01:42:71
  TRACK 57 AUDIO
    TITLE "0:"
    INDEX 01 01:47:39
  TRACK 58 AUDIO
    TITLE "2:cjc039_3469"
    INDEX 01 01:49:16
  TRACK 59 AUDIO
    TITLE "0:"
    INDEX 01 01:50:39
  TRACK 60 AUDIO
    TITLE "3:cjc039_3470"
    INDEX 01 01:51:13
  TRACK 61 AUDIO
    TITLE "0:"
    INDEX 01 01:54:70
  TRACK 62 AUDIO
    TITLE "2:cjc039_3471"
    INDEX 01 01:56:45
  TRACK 63 AUDIO
    TITLE "0:"
    INDEX 01 01:57:68
  TRACK 64 AUDIO
    TITLE "3:cjc039_3472"
    INDEX 01 01:58:44
  TRACK 65 AUDIO
    TITLE "0:"
    INDEX 01 02:02:26
  TRACK 66 AUDIO
    TITLE "2:cjc039_3473"
    INDEX 01 02:04:04
  TRACK 67 AUDIO
    TITLE "0:"
    INDEX 01 02:05:21
  TRACK 68 AUDIO
    TITLE "3:cjc039_3474"
    INDEX 01 02:05:74
  TRACK 69 AUDIO
    TITLE "0:"
    INDEX 01 02:09:52
  TRACK 70 AUDIO
    TITLE "2:cjc039_3475"
    INDEX 01 02:11:25
  TRACK 71 AUDIO
    TITLE "0:"
    INDEX 01 02:12:48
  TRACK 72 AUDIO
    TITLE "3:cjc039_3476"
    INDEX 01 02:13:20
  TRACK 73 AUDIO
    TITLE "0:"
    INDEX 01 02:16:58
  TRACK 74 AUDIO
    TITLE "2:cjc039_3477"
    INDEX 01 02:18:35
  TRACK 75 AUDIO
    TITLE "0:"
    INDEX 01 02:19:50
  TRACK 76 AUDIO
    TITLE "3:cjc039_3478"
    INDEX 01 02:20:26
  TRACK 77 AUDIO
    TITLE "0:"
    INDEX 01 02:23:48
  TRACK 78 AUDIO
    TITLE "2:cjc039_3479"
    INDEX 01 02:25:23
  TRACK 79 AUDIO
    TITLE "0:"
    INDEX 01 02:26:31
  TRACK 80 AUDIO
    TITLE "3:cjc039_3480"
    INDEX 01 02:27:11
  TRACK 81 AUDIO
    TITLE "0:"
    INDEX 01 02:30:66
